<svg width="24" height="24" viewBox="0 0 24 24" fill="none" xmlns="http://www.w3.org/2000/svg">
<path d="M15.58 12C15.58 13.98 13.98 15.58 12 15.58C10.02 15.58 8.42001 13.98 8.42001 12C8.42001 10.02 10.02 8.42004 12 8.42004C13.98 8.42004 15.58 10.02 15.58 12Z" stroke="black" stroke-width="1.5" stroke-linecap="round" stroke-linejoin="round"/>
<path d="M11.9998 20.27C15.5298 20.27 18.8198 18.19 21.1098 14.59C22.0098 13.18 22.0098 10.81 21.1098 9.39997C18.8198 5.79997 15.5298 3.71997 11.9998 3.71997C8.46984 3.71997 5.17984 5.79997 2.88984 9.39997C1.98984 10.81 1.98984 13.18 2.88984 14.59C5.17984 18.19 8.46984 20.27 11.9998 20.27Z" stroke="black" stroke-width="1.5" stroke-linecap="round" stroke-linejoin="round"/>
</svg>
